<svg xmlns="http://www.w3.org/2000/svg" width="45.993" height="46" viewBox="0 0 45.993 46"><defs><style>.a{fill:#003459;}</style></defs><path class="a" d="M42.69,0H3.314A3.31,3.31,0,0,0,0,3.314V42.675A3.314,3.314,0,0,0,3.314,46H42.675a3.314,3.314,0,0,0,3.318-3.314V3.314A3.3,3.3,0,0,0,42.69,0ZM33.764,7.276a3.108,3.108,0,1,1-3.1,3.108,3.108,3.108,0,0,1,3.1-3.108ZM23.009,10.358a3.569,3.569,0,1,1-3.565,3.569,3.569,3.569,0,0,1,3.565-3.569ZM12.258,7.276A3.108,3.108,0,1,1,9.15,10.384,3.108,3.108,0,0,1,12.258,7.276Zm5,9.522a3.846,3.846,0,0,0-2.313,3.516v8.06a3.869,3.869,0,0,0,.465,1.8v.375A1.544,1.544,0,0,1,13.87,32.07H10.639A1.544,1.544,0,0,1,9.1,30.529V24.366H8.791A1.529,1.529,0,0,1,7.25,22.826V16.183a1.544,1.544,0,0,1,1.541-1.541h6.931a1.544,1.544,0,0,1,1.541,1.541Zm11.5,6.032v5.518a1.544,1.544,0,0,1-1.541,1.541h-.6v7.291a1.544,1.544,0,0,1-1.541,1.541H20.951a1.544,1.544,0,0,1-1.541-1.541V29.914h-.585a1.541,1.541,0,0,1-1.537-1.541v-8.06a1.526,1.526,0,0,1,1.537-1.537h8.393a1.544,1.544,0,0,1,1.541,1.537Zm9.983-.049a1.541,1.541,0,0,1-1.537,1.541H36.9V30.48a1.544,1.544,0,0,1-1.541,1.541H32.122a1.544,1.544,0,0,1-1.541-1.541v-.375a3.61,3.61,0,0,0,.461-1.8V20.292a3.835,3.835,0,0,0-2.309-3.516v-.619a1.544,1.544,0,0,1,1.541-1.537h6.931a1.541,1.541,0,0,1,1.537,1.541Z" transform="translate(0)"/></svg>