<svg xmlns="http://www.w3.org/2000/svg" width="44.842" height="46" viewBox="0 0 44.842 46"><defs><style>.a{fill:#003459;}</style></defs><path class="a" d="M41.608,0H3.234A3.276,3.276,0,0,0,0,3.318V42.682A3.276,3.276,0,0,0,3.234,46H41.608a3.276,3.276,0,0,0,3.234-3.318V3.318A3.276,3.276,0,0,0,41.608,0Zm-25.7,34.77H10.445V17.917h5.461Zm-2.73-19.154H13.14a2.915,2.915,0,1,1,.072-5.823,2.916,2.916,0,1,1-.036,5.823ZM35.6,34.77h-5.46V25.754c0-2.266-.791-3.811-2.766-3.811a3,3,0,0,0-2.8,2.049,3.928,3.928,0,0,0-.18,1.367v9.411h-5.46s.072-15.271,0-16.852h5.46V20.3a5.4,5.4,0,0,1,4.921-2.782c3.593,0,6.286,2.409,6.286,7.585Zm0,0" transform="translate(0)"/></svg>