<svg xmlns="http://www.w3.org/2000/svg" width="44.833" height="46" viewBox="0 0 44.833 46"><defs><style>.a{fill:#003459;}</style></defs><path class="a" d="M41.61,0H3.232A3.272,3.272,0,0,0,0,3.315V42.676A3.274,3.274,0,0,0,3.232,46H41.6a3.272,3.272,0,0,0,3.232-3.315V3.315A3.259,3.259,0,0,0,41.61,0ZM32.659,17.933c.009.225.018.458.018.683,0,6.972-5.176,15.022-14.644,15.022h0a14.284,14.284,0,0,1-7.891-2.372,11.1,11.1,0,0,0,1.226.072,10.154,10.154,0,0,0,6.393-2.264,5.182,5.182,0,0,1-4.808-3.666,4.939,4.939,0,0,0,.963.1,4.818,4.818,0,0,0,1.358-.189,5.242,5.242,0,0,1-4.125-5.175v-.072a4.913,4.913,0,0,0,2.33.656,5.364,5.364,0,0,1-1.585-7.044A14.5,14.5,0,0,0,22.5,19.2a5.449,5.449,0,0,1-.131-1.2,5.22,5.22,0,0,1,5.15-5.283,5.057,5.057,0,0,1,3.757,1.671A9.894,9.894,0,0,0,34.542,13.1a5.3,5.3,0,0,1-2.26,2.92,9.9,9.9,0,0,0,2.952-.836A10.571,10.571,0,0,1,32.659,17.933Z"/></svg>