<svg xmlns="http://www.w3.org/2000/svg" width="44.842" height="46" viewBox="0 0 44.842 46"><defs><style>.a{fill:#003459;}</style></defs><path class="a" d="M41.608,0H3.234A3.276,3.276,0,0,0,0,3.317V42.682A3.276,3.276,0,0,0,3.234,46h20.72V28.211H18.13V21.248h5.824V16.123c0-5.942,3.536-9.177,8.7-9.177a46.706,46.706,0,0,1,5.222.274v6.211H34.316c-2.812,0-3.356,1.37-3.356,3.382v4.435h6.722l-.876,6.963H30.96V46H41.608a3.276,3.276,0,0,0,3.234-3.318V3.317A3.276,3.276,0,0,0,41.608,0Zm0,0" transform="translate(0 0)"/></svg>