<svg xmlns="http://www.w3.org/2000/svg" width="44.842" height="46" viewBox="0 0 44.842 46"><defs><style>.a{fill:#003459;}</style></defs><path class="a" d="M41.619,0H3.223A3.265,3.265,0,0,0,0,3.306V42.694A3.265,3.265,0,0,0,3.223,46h38.4a3.265,3.265,0,0,0,3.223-3.306V3.306A3.265,3.265,0,0,0,41.619,0ZM34.245,20.511c-.693,4.431-4.516,6.122-8.2,6.507,1.274.817,1.63,1.845,1.63,4.633s-.037,3.162-.028,3.8c.019,1.048,1.518,1.547,1.462,1.893s-1.256.279-1.818.086A1.9,1.9,0,0,1,25.86,35.5l-.244-3.72s-.141-2-.8-2v6.094c0,1.326,1.087,1.73,1.087,2.211,0,.846-1.555-.077-2.071-.606-.778-.8-.637-2.489-.618-3.825.019-1.288.009-4.123.009-4.123l-.515.01s.225,6.18-.272,7.3c-.637,1.442-2.558,1.941-2.558,1.278,0-.442.478-.3.74-1.3.225-.846.15-7.141.15-7.141a1.756,1.756,0,0,0-.618,1.557c0,.538-.019,3.623-.019,4.537,0,1.153-1.6,1.807-2.37,1.807-.384,0-.871-.019-.871-.231,0-.529,1.462-.846,1.462-1.961,0-.961-.019-3.441-.019-3.441a11.885,11.885,0,0,1-1.79.125,3.857,3.857,0,0,1-3.888-2.71,4.671,4.671,0,0,0-1.911-2.336c-.44-.288-.543-.634-.037-.73,2.342-.452,2.942,2.73,4.516,3.239a4.282,4.282,0,0,0,3.27-.269,3.5,3.5,0,0,1,1.349-2.259c-3.785-.375-7.627-2.518-8.554-7.506a15.842,15.842,0,0,1-.1-1.8,6.863,6.863,0,0,1,1.874-5.027,7.225,7.225,0,0,1,.29-5.056s1.724-.365,4.985,2.028c1.771-.779,6.484-.846,8.714-.173,1.368-.923,3.87-2.239,4.881-1.874.272.452.862,1.768.356,4.662a8.2,8.2,0,0,1,2.127,5.805A14.671,14.671,0,0,1,34.245,20.511Z"/></svg>