<svg xmlns="http://www.w3.org/2000/svg" width="44.842" height="46" viewBox="0 0 44.842 46"><defs><style>.a{fill:#003459;}</style></defs><path class="a" d="M156.076,138.45a4.264,4.264,0,0,0-2.443-2.443,7.124,7.124,0,0,0-2.39-.443c-1.358-.062-1.765-.075-5.2-.075s-3.845.013-5.2.075a7.127,7.127,0,0,0-2.39.443A4.265,4.265,0,0,0,136,138.45a7.126,7.126,0,0,0-.443,2.391c-.062,1.358-.075,1.765-.075,5.2s.013,3.845.075,5.2a7.123,7.123,0,0,0,.443,2.39,4.263,4.263,0,0,0,2.443,2.443,7.115,7.115,0,0,0,2.391.443c1.358.062,1.764.075,5.2.075s3.845-.013,5.2-.075a7.115,7.115,0,0,0,2.391-.443,4.263,4.263,0,0,0,2.443-2.443,7.129,7.129,0,0,0,.443-2.39c.062-1.358.075-1.765.075-5.2s-.013-3.845-.075-5.2A7.115,7.115,0,0,0,156.076,138.45Zm-10.036,14.2a6.611,6.611,0,1,1,6.611-6.611A6.611,6.611,0,0,1,146.04,152.654Zm6.872-11.939a1.545,1.545,0,1,1,1.545-1.545A1.545,1.545,0,0,1,152.912,140.716Zm0,0" transform="translate(-123.619 -123.043)"/><path class="a" d="M215.583,211.292A4.292,4.292,0,1,1,211.292,207,4.291,4.291,0,0,1,215.583,211.292Zm0,0" transform="translate(-188.871 -188.292)"/><path class="a" d="M41.608,0H3.234A3.276,3.276,0,0,0,0,3.318V42.682A3.276,3.276,0,0,0,3.234,46H41.608a3.276,3.276,0,0,0,3.234-3.318V3.318A3.276,3.276,0,0,0,41.608,0Zm-6.39,28.445a9.909,9.909,0,0,1-.6,3.206,6.67,6.67,0,0,1-3.765,3.863,9.245,9.245,0,0,1-3.125.614c-1.373.064-1.812.08-5.308.08s-3.935-.015-5.308-.08a9.245,9.245,0,0,1-3.125-.614,6.294,6.294,0,0,1-2.281-1.523,6.491,6.491,0,0,1-1.485-2.339,9.906,9.906,0,0,1-.6-3.206c-.063-1.409-.078-1.859-.078-5.445s.015-4.037.078-5.445a9.91,9.91,0,0,1,.6-3.206,6.489,6.489,0,0,1,1.485-2.339,6.293,6.293,0,0,1,2.28-1.523,9.247,9.247,0,0,1,3.125-.614c1.373-.064,1.812-.08,5.308-.08s3.935.015,5.308.08a9.249,9.249,0,0,1,3.125.613,6.3,6.3,0,0,1,2.281,1.524,6.49,6.49,0,0,1,1.485,2.339,9.908,9.908,0,0,1,.6,3.206c.063,1.408.077,1.858.077,5.445S35.281,27.037,35.218,28.445Zm0,0" transform="translate(0)"/></svg>